<svg width="1674" height="512" viewBox="0 0 1674 512" fill="none" xmlns="http://www.w3.org/2000/svg">
<g opacity="0.6">
<path d="M547.3 408.275C548.294 408.275 549.1 407.469 549.1 406.475C549.1 405.481 548.294 404.675 547.3 404.675C546.306 404.675 545.5 405.481 545.5 406.475C545.5 407.469 546.306 408.275 547.3 408.275Z" fill="white"/>
<path d="M747.2 363.275C747.863 363.275 748.4 362.738 748.4 362.075C748.4 361.412 747.863 360.875 747.2 360.875C746.537 360.875 746 361.412 746 362.075C746 362.738 746.537 363.275 747.2 363.275Z" fill="white"/>
<path d="M648.9 344.575C649.728 344.575 650.4 343.903 650.4 343.075C650.4 342.247 649.728 341.575 648.9 341.575C648.072 341.575 647.4 342.247 647.4 343.075C647.4 343.903 648.072 344.575 648.9 344.575Z" fill="white"/>
<path d="M601.2 344.475C602.305 344.475 603.2 343.58 603.2 342.475C603.2 341.371 602.305 340.475 601.2 340.475C600.095 340.475 599.2 341.371 599.2 342.475C599.2 343.58 600.095 344.475 601.2 344.475Z" fill="white"/>
<path d="M576.4 257.875C577.284 257.875 578 257.159 578 256.275C578 255.391 577.284 254.675 576.4 254.675C575.516 254.675 574.8 255.391 574.8 256.275C574.8 257.159 575.516 257.875 576.4 257.875Z" fill="white"/>
<path d="M631.2 244.175C632.084 244.175 632.8 243.459 632.8 242.575C632.8 241.691 632.084 240.975 631.2 240.975C630.316 240.975 629.6 241.691 629.6 242.575C629.6 243.459 630.316 244.175 631.2 244.175Z" fill="white"/>
<path d="M570.5 192.775C571.163 192.775 571.7 192.238 571.7 191.575C571.7 190.912 571.163 190.375 570.5 190.375C569.837 190.375 569.3 190.912 569.3 191.575C569.3 192.238 569.837 192.775 570.5 192.775Z" fill="white"/>
<path d="M460.1 295.375C460.763 295.375 461.3 294.838 461.3 294.175C461.3 293.512 460.763 292.975 460.1 292.975C459.437 292.975 458.9 293.512 458.9 294.175C458.9 294.838 459.437 295.375 460.1 295.375Z" fill="white"/>
<path d="M468 367.175C468.663 367.175 469.2 366.638 469.2 365.975C469.2 365.312 468.663 364.775 468 364.775C467.337 364.775 466.8 365.312 466.8 365.975C466.8 366.638 467.337 367.175 468 367.175Z" fill="white"/>
<path d="M470.6 488.675C471.263 488.675 471.8 488.138 471.8 487.475C471.8 486.812 471.263 486.275 470.6 486.275C469.937 486.275 469.4 486.812 469.4 487.475C469.4 488.138 469.937 488.675 470.6 488.675Z" fill="white"/>
<path d="M565.9 467.775C566.563 467.775 567.1 467.238 567.1 466.575C567.1 465.912 566.563 465.375 565.9 465.375C565.237 465.375 564.7 465.912 564.7 466.575C564.7 467.238 565.237 467.775 565.9 467.775Z" fill="white"/>
<path d="M347.9 485.175C348.563 485.175 349.1 484.638 349.1 483.975C349.1 483.312 348.563 482.775 347.9 482.775C347.237 482.775 346.7 483.312 346.7 483.975C346.7 484.638 347.237 485.175 347.9 485.175Z" fill="white"/>
<path d="M145.5 457.875C146.384 457.875 147.1 457.159 147.1 456.275C147.1 455.391 146.384 454.675 145.5 454.675C144.616 454.675 143.9 455.391 143.9 456.275C143.9 457.159 144.616 457.875 145.5 457.875Z" fill="white"/>
<path d="M74.3 433.075C75.1836 433.075 75.9 432.359 75.9 431.475C75.9 430.591 75.1836 429.875 74.3 429.875C73.4163 429.875 72.7 430.591 72.7 431.475C72.7 432.359 73.4163 433.075 74.3 433.075Z" fill="white"/>
<path d="M81.5 451.575C82.1075 451.575 82.6 451.083 82.6 450.475C82.6 449.867 82.1075 449.375 81.5 449.375C80.8925 449.375 80.4 449.867 80.4 450.475C80.4 451.083 80.8925 451.575 81.5 451.575Z" fill="white"/>
<path d="M35.1 365.375C35.7075 365.375 36.2 364.883 36.2 364.275C36.2 363.668 35.7075 363.175 35.1 363.175C34.4925 363.175 34 363.668 34 364.275C34 364.883 34.4925 365.375 35.1 365.375Z" fill="white"/>
<path d="M142.2 361.375C142.807 361.375 143.3 360.883 143.3 360.275C143.3 359.668 142.807 359.175 142.2 359.175C141.592 359.175 141.1 359.668 141.1 360.275C141.1 360.883 141.592 361.375 142.2 361.375Z" fill="white"/>
<path d="M104.3 293.875C105.128 293.875 105.8 293.203 105.8 292.375C105.8 291.547 105.128 290.875 104.3 290.875C103.472 290.875 102.8 291.547 102.8 292.375C102.8 293.203 103.472 293.875 104.3 293.875Z" fill="white"/>
<path d="M76.2 292.875C76.8075 292.875 77.3 292.383 77.3 291.775C77.3 291.168 76.8075 290.675 76.2 290.675C75.5925 290.675 75.1 291.168 75.1 291.775C75.1 292.383 75.5925 292.875 76.2 292.875Z" fill="white"/>
<path d="M91.9 219.075C92.5076 219.075 93 218.583 93 217.975C93 217.367 92.5076 216.875 91.9 216.875C91.2925 216.875 90.8 217.367 90.8 217.975C90.8 218.583 91.2925 219.075 91.9 219.075Z" fill="white"/>
<path d="M157.2 230.775C157.807 230.775 158.3 230.282 158.3 229.675C158.3 229.067 157.807 228.575 157.2 228.575C156.592 228.575 156.1 229.067 156.1 229.675C156.1 230.282 156.592 230.775 157.2 230.775Z" fill="white"/>
<path d="M47.5 225.575C48.1075 225.575 48.6 225.083 48.6 224.475C48.6 223.867 48.1075 223.375 47.5 223.375C46.8925 223.375 46.4 223.867 46.4 224.475C46.4 225.083 46.8925 225.575 47.5 225.575Z" fill="white"/>
<path d="M223.8 362.675C224.407 362.675 224.9 362.183 224.9 361.575C224.9 360.968 224.407 360.475 223.8 360.475C223.192 360.475 222.7 360.968 222.7 361.575C222.7 362.183 223.192 362.675 223.8 362.675Z" fill="white"/>
<path d="M302.2 271.275C302.807 271.275 303.3 270.782 303.3 270.175C303.3 269.567 302.807 269.075 302.2 269.075C301.592 269.075 301.1 269.567 301.1 270.175C301.1 270.782 301.592 271.275 302.2 271.275Z" fill="white"/>
<path d="M315.3 252.975C315.907 252.975 316.4 252.482 316.4 251.875C316.4 251.267 315.907 250.775 315.3 250.775C314.692 250.775 314.2 251.267 314.2 251.875C314.2 252.482 314.692 252.975 315.3 252.975Z" fill="white"/>
<path d="M387.1 200.775C387.708 200.775 388.2 200.282 388.2 199.675C388.2 199.067 387.708 198.575 387.1 198.575C386.492 198.575 386 199.067 386 199.675C386 200.282 386.492 200.775 387.1 200.775Z" fill="white"/>
<path d="M485.1 260.175C485.708 260.175 486.2 259.683 486.2 259.075C486.2 258.468 485.708 257.975 485.1 257.975C484.492 257.975 484 258.468 484 259.075C484 259.683 484.492 260.175 485.1 260.175Z" fill="white"/>
<path d="M929.7 53.6749C930.363 53.6749 930.9 53.1376 930.9 52.4749C930.9 51.8122 930.363 51.2749 929.7 51.2749C929.037 51.2749 928.5 51.8122 928.5 52.4749C928.5 53.1376 929.037 53.6749 929.7 53.6749Z" fill="white"/>
<path d="M937.5 125.475C938.163 125.475 938.7 124.938 938.7 124.275C938.7 123.612 938.163 123.075 937.5 123.075C936.837 123.075 936.3 123.612 936.3 124.275C936.3 124.938 936.837 125.475 937.5 125.475Z" fill="white"/>
<path d="M940.1 246.975C940.763 246.975 941.3 246.438 941.3 245.775C941.3 245.112 940.763 244.575 940.1 244.575C939.437 244.575 938.9 245.112 938.9 245.775C938.9 246.438 939.437 246.975 940.1 246.975Z" fill="white"/>
<path d="M817.4 243.475C818.063 243.475 818.6 242.938 818.6 242.275C818.6 241.612 818.063 241.075 817.4 241.075C816.737 241.075 816.2 241.612 816.2 242.275C816.2 242.938 816.737 243.475 817.4 243.475Z" fill="white"/>
<path d="M615 216.275C615.884 216.275 616.6 215.559 616.6 214.675C616.6 213.791 615.884 213.075 615 213.075C614.116 213.075 613.4 213.791 613.4 214.675C613.4 215.559 614.116 216.275 615 216.275Z" fill="white"/>
<path d="M543.8 191.375C544.684 191.375 545.4 190.659 545.4 189.775C545.4 188.891 544.684 188.175 543.8 188.175C542.916 188.175 542.2 188.891 542.2 189.775C542.2 190.659 542.916 191.375 543.8 191.375Z" fill="white"/>
<path d="M551 209.875C551.608 209.875 552.1 209.383 552.1 208.775C552.1 208.168 551.608 207.675 551 207.675C550.392 207.675 549.9 208.168 549.9 208.775C549.9 209.383 550.392 209.875 551 209.875Z" fill="white"/>
<path d="M611.7 119.775C612.308 119.775 612.8 119.282 612.8 118.675C612.8 118.067 612.308 117.575 611.7 117.575C611.092 117.575 610.6 118.067 610.6 118.675C610.6 119.282 611.092 119.775 611.7 119.775Z" fill="white"/>
<path d="M573.8 52.175C574.628 52.175 575.3 51.5035 575.3 50.675C575.3 49.8466 574.628 49.175 573.8 49.175C572.972 49.175 572.3 49.8466 572.3 50.675C572.3 51.5035 572.972 52.175 573.8 52.175Z" fill="white"/>
<path d="M545.8 51.1751C546.407 51.1751 546.9 50.6826 546.9 50.0751C546.9 49.4676 546.407 48.9751 545.8 48.9751C545.192 48.9751 544.7 49.4676 544.7 50.0751C544.7 50.6826 545.192 51.1751 545.8 51.1751Z" fill="white"/>
<path d="M693.4 121.075C694.008 121.075 694.5 120.583 694.5 119.975C694.5 119.367 694.008 118.875 693.4 118.875C692.793 118.875 692.3 119.367 692.3 119.975C692.3 120.583 692.793 121.075 693.4 121.075Z" fill="white"/>
<path d="M771.7 29.575C772.308 29.575 772.8 29.0825 772.8 28.475C772.8 27.8675 772.308 27.375 771.7 27.375C771.092 27.375 770.6 27.8675 770.6 28.475C770.6 29.0825 771.092 29.575 771.7 29.575Z" fill="white"/>
<path d="M954.6 18.4749C955.207 18.4749 955.7 17.9824 955.7 17.3749C955.7 16.7674 955.207 16.2749 954.6 16.2749C953.992 16.2749 953.5 16.7674 953.5 17.3749C953.5 17.9824 953.992 18.4749 954.6 18.4749Z" fill="white"/>
<path d="M557.6 302.675C558.207 302.675 558.7 302.183 558.7 301.575C558.7 300.968 558.207 300.475 557.6 300.475C556.992 300.475 556.5 300.968 556.5 301.575C556.5 302.183 556.992 302.675 557.6 302.675Z" fill="white"/>
<path d="M674.3 470.975C674.963 470.975 675.5 470.438 675.5 469.775C675.5 469.112 674.963 468.575 674.3 468.575C673.637 468.575 673.1 469.112 673.1 469.775C673.1 470.438 673.637 470.975 674.3 470.975Z" fill="white"/>
<path d="M750.1 478.875C750.763 478.875 751.3 478.338 751.3 477.675C751.3 477.012 750.763 476.475 750.1 476.475C749.437 476.475 748.9 477.012 748.9 477.675C748.9 478.338 749.437 478.875 750.1 478.875Z" fill="white"/>
<path d="M837.6 482.775C838.263 482.775 838.8 482.238 838.8 481.575C838.8 480.912 838.263 480.375 837.6 480.375C836.937 480.375 836.4 480.912 836.4 481.575C836.4 482.238 836.937 482.775 837.6 482.775Z" fill="white"/>
<path d="M833.7 452.775C834.363 452.775 834.9 452.238 834.9 451.575C834.9 450.912 834.363 450.375 833.7 450.375C833.037 450.375 832.5 450.912 832.5 451.575C832.5 452.238 833.037 452.775 833.7 452.775Z" fill="white"/>
<path d="M858.5 437.075C859.163 437.075 859.7 436.538 859.7 435.875C859.7 435.212 859.163 434.675 858.5 434.675C857.837 434.675 857.3 435.212 857.3 435.875C857.3 436.538 857.837 437.075 858.5 437.075Z" fill="white"/>
<path d="M919.2 334.975C919.752 334.975 920.2 334.527 920.2 333.975C920.2 333.423 919.752 332.975 919.2 332.975C918.648 332.975 918.2 333.423 918.2 333.975C918.2 334.527 918.648 334.975 919.2 334.975Z" fill="white"/>
<path d="M1027 397.475C1028.16 397.475 1029.1 396.535 1029.1 395.375C1029.1 394.215 1028.16 393.275 1027 393.275C1025.84 393.275 1024.9 394.215 1024.9 395.375C1024.9 396.535 1025.84 397.475 1027 397.475Z" fill="white"/>
<path d="M1032.9 384.375C1033.34 384.375 1033.7 384.017 1033.7 383.575C1033.7 383.133 1033.34 382.775 1032.9 382.775C1032.46 382.775 1032.1 383.133 1032.1 383.575C1032.1 384.017 1032.46 384.375 1032.9 384.375Z" fill="white"/>
<path d="M1036.1 283.875C1036.54 283.875 1036.9 283.517 1036.9 283.075C1036.9 282.633 1036.54 282.275 1036.1 282.275C1035.66 282.275 1035.3 282.633 1035.3 283.075C1035.3 283.517 1035.66 283.875 1036.1 283.875Z" fill="white"/>
<path d="M1079.9 210.675C1080.34 210.675 1080.7 210.317 1080.7 209.875C1080.7 209.433 1080.34 209.075 1079.9 209.075C1079.46 209.075 1079.1 209.433 1079.1 209.875C1079.1 210.317 1079.46 210.675 1079.9 210.675Z" fill="white"/>
<path d="M1003.5 215.875C1003.94 215.875 1004.3 215.517 1004.3 215.075C1004.3 214.633 1003.94 214.275 1003.5 214.275C1003.06 214.275 1002.7 214.633 1002.7 215.075C1002.7 215.517 1003.06 215.875 1003.5 215.875Z" fill="white"/>
<path d="M1072.2 481.275C1072.75 481.275 1073.2 480.827 1073.2 480.275C1073.2 479.723 1072.75 479.275 1072.2 479.275C1071.65 479.275 1071.2 479.723 1071.2 480.275C1071.2 480.827 1071.65 481.275 1072.2 481.275Z" fill="white"/>
<path d="M999.7 459.675C1000.25 459.675 1000.7 459.227 1000.7 458.675C1000.7 458.123 1000.25 457.675 999.7 457.675C999.148 457.675 998.7 458.123 998.7 458.675C998.7 459.227 999.148 459.675 999.7 459.675Z" fill="white"/>
<path d="M982.7 505.375C983.252 505.375 983.7 504.927 983.7 504.375C983.7 503.823 983.252 503.375 982.7 503.375C982.148 503.375 981.7 503.823 981.7 504.375C981.7 504.927 982.148 505.375 982.7 505.375Z" fill="white"/>
<path d="M953.9 332.675C954.452 332.675 954.9 332.227 954.9 331.675C954.9 331.123 954.452 330.675 953.9 330.675C953.348 330.675 952.9 331.123 952.9 331.675C952.9 332.227 953.348 332.675 953.9 332.675Z" fill="white"/>
<path d="M950.3 288.575C950.852 288.575 951.3 288.127 951.3 287.575C951.3 287.023 950.852 286.575 950.3 286.575C949.748 286.575 949.3 287.023 949.3 287.575C949.3 288.127 949.748 288.575 950.3 288.575Z" fill="white"/>
<path d="M837.3 281.075C837.852 281.075 838.3 280.627 838.3 280.075C838.3 279.523 837.852 279.075 837.3 279.075C836.748 279.075 836.3 279.523 836.3 280.075C836.3 280.627 836.748 281.075 837.3 281.075Z" fill="white"/>
<path d="M876.5 245.175C877.052 245.175 877.5 244.727 877.5 244.175C877.5 243.623 877.052 243.175 876.5 243.175C875.948 243.175 875.5 243.623 875.5 244.175C875.5 244.727 875.948 245.175 876.5 245.175Z" fill="white"/>
<path d="M728.9 239.975C729.452 239.975 729.9 239.527 729.9 238.975C729.9 238.423 729.452 237.975 728.9 237.975C728.348 237.975 727.9 238.423 727.9 238.975C727.9 239.527 728.348 239.975 728.9 239.975Z" fill="white"/>
<path d="M669.1 449.475C669.763 449.475 670.3 448.938 670.3 448.275C670.3 447.612 669.763 447.075 669.1 447.075C668.437 447.075 667.9 447.612 667.9 448.275C667.9 448.938 668.437 449.475 669.1 449.475Z" fill="white"/>
<path d="M1161.5 209.175C1162.16 209.175 1162.7 208.638 1162.7 207.975C1162.7 207.312 1162.16 206.775 1161.5 206.775C1160.84 206.775 1160.3 207.312 1160.3 207.975C1160.3 208.638 1160.84 209.175 1161.5 209.175Z" fill="white"/>
<path d="M1063.2 190.575C1064.03 190.575 1064.7 189.903 1064.7 189.075C1064.7 188.247 1064.03 187.575 1063.2 187.575C1062.37 187.575 1061.7 188.247 1061.7 189.075C1061.7 189.903 1062.37 190.575 1063.2 190.575Z" fill="white"/>
<path d="M1045.5 90.075C1046.38 90.075 1047.1 89.3587 1047.1 88.475C1047.1 87.5913 1046.38 86.875 1045.5 86.875C1044.62 86.875 1043.9 87.5913 1043.9 88.475C1043.9 89.3587 1044.62 90.075 1045.5 90.075Z" fill="white"/>
<path d="M1427.8 342.875C1428.46 342.875 1429 342.338 1429 341.675C1429 341.012 1428.46 340.475 1427.8 340.475C1427.14 340.475 1426.6 341.012 1426.6 341.675C1426.6 342.338 1427.14 342.875 1427.8 342.875Z" fill="white"/>
<path d="M1435.6 414.775C1436.26 414.775 1436.8 414.238 1436.8 413.575C1436.8 412.912 1436.26 412.375 1435.6 412.375C1434.94 412.375 1434.4 412.912 1434.4 413.575C1434.4 414.238 1434.94 414.775 1435.6 414.775Z" fill="white"/>
<path d="M1354.4 92.8751C1355.06 92.8751 1355.6 92.3378 1355.6 91.6751C1355.6 91.0124 1355.06 90.4751 1354.4 90.4751C1353.74 90.4751 1353.2 91.0124 1353.2 91.6751C1353.2 92.3378 1353.74 92.8751 1354.4 92.8751Z" fill="white"/>
<path d="M1231.7 89.3751C1232.36 89.3751 1232.9 88.8378 1232.9 88.1751C1232.9 87.5124 1232.36 86.9751 1231.7 86.9751C1231.04 86.9751 1230.5 87.5124 1230.5 88.1751C1230.5 88.8378 1231.04 89.3751 1231.7 89.3751Z" fill="white"/>
<path d="M1029.3 62.1751C1030.18 62.1751 1030.9 61.4588 1030.9 60.5751C1030.9 59.6914 1030.18 58.9751 1029.3 58.9751C1028.42 58.9751 1027.7 59.6914 1027.7 60.5751C1027.7 61.4588 1028.42 62.1751 1029.3 62.1751Z" fill="white"/>
<path d="M1109.9 408.975C1110.51 408.975 1111 408.482 1111 407.875C1111 407.267 1110.51 406.775 1109.9 406.775C1109.29 406.775 1108.8 407.267 1108.8 407.875C1108.8 408.482 1109.29 408.975 1109.9 408.975Z" fill="white"/>
<path d="M1191.5 410.275C1192.11 410.275 1192.6 409.782 1192.6 409.175C1192.6 408.567 1192.11 408.075 1191.5 408.075C1190.89 408.075 1190.4 408.567 1190.4 409.175C1190.4 409.782 1190.89 410.275 1191.5 410.275Z" fill="white"/>
<path d="M1598.4 395.175C1599.06 395.175 1599.6 394.638 1599.6 393.975C1599.6 393.312 1599.06 392.775 1598.4 392.775C1597.74 392.775 1597.2 393.312 1597.2 393.975C1597.2 394.638 1597.74 395.175 1598.4 395.175Z" fill="white"/>
<path d="M180.3 284.675C180.963 284.675 181.5 284.138 181.5 283.475C181.5 282.812 180.963 282.275 180.3 282.275C179.637 282.275 179.1 282.812 179.1 283.475C179.1 284.138 179.637 284.675 180.3 284.675Z" fill="white"/>
<path d="M1280.4 461.175C1281.01 461.175 1281.5 460.683 1281.5 460.075C1281.5 459.468 1281.01 458.975 1280.4 458.975C1279.79 458.975 1279.3 459.468 1279.3 460.075C1279.3 460.683 1279.79 461.175 1280.4 461.175Z" fill="white"/>
<path d="M1362.1 462.475C1362.71 462.475 1363.2 461.982 1363.2 461.375C1363.2 460.767 1362.71 460.275 1362.1 460.275C1361.49 460.275 1361 460.767 1361 461.375C1361 461.982 1361.49 462.475 1362.1 462.475Z" fill="white"/>
<path d="M1088.6 316.975C1089.26 316.975 1089.8 316.438 1089.8 315.775C1089.8 315.112 1089.26 314.575 1088.6 314.575C1087.94 314.575 1087.4 315.112 1087.4 315.775C1087.4 316.438 1087.94 316.975 1088.6 316.975Z" fill="white"/>
<path d="M1164.4 324.775C1165.06 324.775 1165.6 324.238 1165.6 323.575C1165.6 322.912 1165.06 322.375 1164.4 322.375C1163.74 322.375 1163.2 322.912 1163.2 323.575C1163.2 324.238 1163.74 324.775 1164.4 324.775Z" fill="white"/>
<path d="M1251.9 328.675C1252.56 328.675 1253.1 328.138 1253.1 327.475C1253.1 326.812 1252.56 326.275 1251.9 326.275C1251.24 326.275 1250.7 326.812 1250.7 327.475C1250.7 328.138 1251.24 328.675 1251.9 328.675Z" fill="white"/>
<path d="M1248 298.675C1248.66 298.675 1249.2 298.138 1249.2 297.475C1249.2 296.812 1248.66 296.275 1248 296.275C1247.34 296.275 1246.8 296.812 1246.8 297.475C1246.8 298.138 1247.34 298.675 1248 298.675Z" fill="white"/>
<path d="M1272.8 282.975C1273.46 282.975 1274 282.438 1274 281.775C1274 281.112 1273.46 280.575 1272.8 280.575C1272.14 280.575 1271.6 281.112 1271.6 281.775C1271.6 282.438 1272.14 282.975 1272.8 282.975Z" fill="white"/>
<path d="M1333.5 180.875C1334.05 180.875 1334.5 180.427 1334.5 179.875C1334.5 179.323 1334.05 178.875 1333.5 178.875C1332.95 178.875 1332.5 179.323 1332.5 179.875C1332.5 180.427 1332.95 180.875 1333.5 180.875Z" fill="white"/>
<path d="M1441.3 243.375C1442.46 243.375 1443.4 242.435 1443.4 241.275C1443.4 240.115 1442.46 239.175 1441.3 239.175C1440.14 239.175 1439.2 240.115 1439.2 241.275C1439.2 242.435 1440.14 243.375 1441.3 243.375Z" fill="white"/>
<path d="M1447.2 230.375C1447.64 230.375 1448 230.017 1448 229.575C1448 229.133 1447.64 228.775 1447.2 228.775C1446.76 228.775 1446.4 229.133 1446.4 229.575C1446.4 230.017 1446.76 230.375 1447.2 230.375Z" fill="white"/>
<path d="M1450.4 129.775C1450.84 129.775 1451.2 129.417 1451.2 128.975C1451.2 128.533 1450.84 128.175 1450.4 128.175C1449.96 128.175 1449.6 128.533 1449.6 128.975C1449.6 129.417 1449.96 129.775 1450.4 129.775Z" fill="white"/>
<path d="M1494.2 56.5751C1494.64 56.5751 1495 56.2169 1495 55.7751C1495 55.3333 1494.64 54.9751 1494.2 54.9751C1493.76 54.9751 1493.4 55.3333 1493.4 55.7751C1493.4 56.2169 1493.76 56.5751 1494.2 56.5751Z" fill="white"/>
<path d="M1417.8 61.8749C1418.24 61.8749 1418.6 61.5167 1418.6 61.0749C1418.6 60.6331 1418.24 60.2749 1417.8 60.2749C1417.36 60.2749 1417 60.6331 1417 61.0749C1417 61.5167 1417.36 61.8749 1417.8 61.8749Z" fill="white"/>
<path d="M1486.5 327.175C1487.05 327.175 1487.5 326.727 1487.5 326.175C1487.5 325.623 1487.05 325.175 1486.5 325.175C1485.95 325.175 1485.5 325.623 1485.5 326.175C1485.5 326.727 1485.95 327.175 1486.5 327.175Z" fill="white"/>
<path d="M1414 305.675C1414.55 305.675 1415 305.227 1415 304.675C1415 304.123 1414.55 303.675 1414 303.675C1413.45 303.675 1413 304.123 1413 304.675C1413 305.227 1413.45 305.675 1414 305.675Z" fill="white"/>
<path d="M1397 351.375C1397.55 351.375 1398 350.927 1398 350.375C1398 349.823 1397.55 349.375 1397 349.375C1396.45 349.375 1396 349.823 1396 350.375C1396 350.927 1396.45 351.375 1397 351.375Z" fill="white"/>
<path d="M1368.2 178.575C1368.75 178.575 1369.2 178.127 1369.2 177.575C1369.2 177.023 1368.75 176.575 1368.2 176.575C1367.65 176.575 1367.2 177.023 1367.2 177.575C1367.2 178.127 1367.65 178.575 1368.2 178.575Z" fill="white"/>
<path d="M1364.6 134.575C1365.15 134.575 1365.6 134.127 1365.6 133.575C1365.6 133.023 1365.15 132.575 1364.6 132.575C1364.05 132.575 1363.6 133.023 1363.6 133.575C1363.6 134.127 1364.05 134.575 1364.6 134.575Z" fill="white"/>
<path d="M1251.6 127.075C1252.15 127.075 1252.6 126.627 1252.6 126.075C1252.6 125.523 1252.15 125.075 1251.6 125.075C1251.05 125.075 1250.6 125.523 1250.6 126.075C1250.6 126.627 1251.05 127.075 1251.6 127.075Z" fill="white"/>
<path d="M1290.8 91.075C1291.35 91.075 1291.8 90.6272 1291.8 90.075C1291.8 89.5227 1291.35 89.075 1290.8 89.075C1290.25 89.075 1289.8 89.5227 1289.8 90.075C1289.8 90.6272 1290.25 91.075 1290.8 91.075Z" fill="white"/>
<path d="M1143.2 85.875C1143.75 85.875 1144.2 85.4273 1144.2 84.875C1144.2 84.3227 1143.75 83.875 1143.2 83.875C1142.65 83.875 1142.2 84.3227 1142.2 84.875C1142.2 85.4273 1142.65 85.875 1143.2 85.875Z" fill="white"/>
<path d="M1083.4 295.375C1084.06 295.375 1084.6 294.838 1084.6 294.175C1084.6 293.512 1084.06 292.975 1083.4 292.975C1082.74 292.975 1082.2 293.512 1082.2 294.175C1082.2 294.838 1082.74 295.375 1083.4 295.375Z" fill="white"/>
<path d="M148.5 57.8751C149.163 57.8751 149.7 57.3378 149.7 56.6751C149.7 56.0124 149.163 55.4751 148.5 55.4751C147.837 55.4751 147.3 56.0124 147.3 56.6751C147.3 57.3378 147.837 57.8751 148.5 57.8751Z" fill="white"/>
<path d="M50.1 39.175C50.9284 39.175 51.6 38.5035 51.6 37.675C51.6 36.8466 50.9284 36.175 50.1 36.175C49.2715 36.175 48.6 36.8466 48.6 37.675C48.6 38.5035 49.2715 39.175 50.1 39.175Z" fill="white"/>
<path d="M75.6 165.575C76.2628 165.575 76.8 165.038 76.8 164.375C76.8 163.712 76.2628 163.175 75.6 163.175C74.9373 163.175 74.4 163.712 74.4 164.375C74.4 165.038 74.9373 165.575 75.6 165.575Z" fill="white"/>
<path d="M151.3 173.475C151.963 173.475 152.5 172.938 152.5 172.275C152.5 171.612 151.963 171.075 151.3 171.075C150.637 171.075 150.1 171.612 150.1 172.275C150.1 172.938 150.637 173.475 151.3 173.475Z" fill="white"/>
<path d="M238.8 177.375C239.463 177.375 240 176.838 240 176.175C240 175.512 239.463 174.975 238.8 174.975C238.137 174.975 237.6 175.512 237.6 176.175C237.6 176.838 238.137 177.375 238.8 177.375Z" fill="white"/>
<path d="M234.9 147.275C235.563 147.275 236.1 146.738 236.1 146.075C236.1 145.412 235.563 144.875 234.9 144.875C234.237 144.875 233.7 145.412 233.7 146.075C233.7 146.738 234.237 147.275 234.9 147.275Z" fill="white"/>
<path d="M259.7 131.675C260.363 131.675 260.9 131.138 260.9 130.475C260.9 129.812 260.363 129.275 259.7 129.275C259.037 129.275 258.5 129.812 258.5 130.475C258.5 131.138 259.037 131.675 259.7 131.675Z" fill="white"/>
<path d="M320.5 29.575C321.052 29.575 321.5 29.1272 321.5 28.575C321.5 28.0227 321.052 27.575 320.5 27.575C319.948 27.575 319.5 28.0227 319.5 28.575C319.5 29.1272 319.948 29.575 320.5 29.575Z" fill="white"/>
<path d="M428.2 92.075C429.36 92.075 430.3 91.1348 430.3 89.975C430.3 88.8152 429.36 87.875 428.2 87.875C427.04 87.875 426.1 88.8152 426.1 89.975C426.1 91.1348 427.04 92.075 428.2 92.075Z" fill="white"/>
<path d="M434.1 78.975C434.542 78.975 434.9 78.6168 434.9 78.175C434.9 77.7332 434.542 77.375 434.1 77.375C433.658 77.375 433.3 77.7332 433.3 78.175C433.3 78.6168 433.658 78.975 434.1 78.975Z" fill="white"/>
<path d="M473.4 175.875C473.952 175.875 474.4 175.427 474.4 174.875C474.4 174.323 473.952 173.875 473.4 173.875C472.848 173.875 472.4 174.323 472.4 174.875C472.4 175.427 472.848 175.875 473.4 175.875Z" fill="white"/>
<path d="M400.9 154.275C401.452 154.275 401.9 153.827 401.9 153.275C401.9 152.723 401.452 152.275 400.9 152.275C400.348 152.275 399.9 152.723 399.9 153.275C399.9 153.827 400.348 154.275 400.9 154.275Z" fill="white"/>
<path d="M342.9 456.275C343.784 456.275 344.5 455.559 344.5 454.675C344.5 453.791 343.784 453.075 342.9 453.075C342.016 453.075 341.3 453.791 341.3 454.675C341.3 455.559 342.016 456.275 342.9 456.275Z" fill="white"/>
<path d="M397.7 442.575C398.584 442.575 399.3 441.859 399.3 440.975C399.3 440.091 398.584 439.375 397.7 439.375C396.816 439.375 396.1 440.091 396.1 440.975C396.1 441.859 396.816 442.575 397.7 442.575Z" fill="white"/>
<path d="M337 391.275C337.663 391.275 338.2 390.738 338.2 390.075C338.2 389.412 337.663 388.875 337 388.875C336.337 388.875 335.8 389.412 335.8 390.075C335.8 390.738 336.337 391.275 337 391.275Z" fill="white"/>
<path d="M153.6 399.175C154.208 399.175 154.7 398.683 154.7 398.075C154.7 397.468 154.208 396.975 153.6 396.975C152.992 396.975 152.5 397.468 152.5 398.075C152.5 398.683 152.992 399.175 153.6 399.175Z" fill="white"/>
<path d="M251.6 458.675C252.208 458.675 252.7 458.183 252.7 457.575C252.7 456.968 252.208 456.475 251.6 456.475C250.992 456.475 250.5 456.968 250.5 457.575C250.5 458.183 250.992 458.675 251.6 458.675Z" fill="white"/>
<path d="M381.5 414.675C382.384 414.675 383.1 413.959 383.1 413.075C383.1 412.191 382.384 411.475 381.5 411.475C380.616 411.475 379.9 412.191 379.9 413.075C379.9 413.959 380.616 414.675 381.5 414.675Z" fill="white"/>
<path d="M310.3 389.875C311.184 389.875 311.9 389.159 311.9 388.275C311.9 387.391 311.184 386.675 310.3 386.675C309.416 386.675 308.7 387.391 308.7 388.275C308.7 389.159 309.416 389.875 310.3 389.875Z" fill="white"/>
<path d="M317.5 408.275C318.108 408.275 318.6 407.782 318.6 407.175C318.6 406.567 318.108 406.075 317.5 406.075C316.893 406.075 316.4 406.567 316.4 407.175C316.4 407.782 316.893 408.275 317.5 408.275Z" fill="white"/>
<path d="M239.9 374.275C240.452 374.275 240.9 373.827 240.9 373.275C240.9 372.723 240.452 372.275 239.9 372.275C239.348 372.275 238.9 372.723 238.9 373.275C238.9 373.827 239.348 374.275 239.9 374.275Z" fill="white"/>
<path d="M167.4 352.775C167.952 352.775 168.4 352.327 168.4 351.775C168.4 351.223 167.952 350.775 167.4 350.775C166.848 350.775 166.4 351.223 166.4 351.775C166.4 352.327 166.848 352.775 167.4 352.775Z" fill="white"/>
<path d="M1500 500.575C1500.83 500.575 1501.5 499.903 1501.5 499.075C1501.5 498.247 1500.83 497.575 1500 497.575C1499.17 497.575 1498.5 498.247 1498.5 499.075C1498.5 499.903 1499.17 500.575 1500 500.575Z" fill="white"/>
<path d="M1500.7 453.375C1501.8 453.375 1502.7 452.48 1502.7 451.375C1502.7 450.27 1501.8 449.375 1500.7 449.375C1499.6 449.375 1498.7 450.27 1498.7 451.375C1498.7 452.48 1499.6 453.375 1500.7 453.375Z" fill="white"/>
<path d="M1586.9 428.175C1587.78 428.175 1588.5 427.459 1588.5 426.575C1588.5 425.691 1587.78 424.975 1586.9 424.975C1586.02 424.975 1585.3 425.691 1585.3 426.575C1585.3 427.459 1586.02 428.175 1586.9 428.175Z" fill="white"/>
<path d="M1600.6 483.075C1601.48 483.075 1602.2 482.359 1602.2 481.475C1602.2 480.591 1601.48 479.875 1600.6 479.875C1599.72 479.875 1599 480.591 1599 481.475C1599 482.359 1599.72 483.075 1600.6 483.075Z" fill="white"/>
<path d="M1651.6 421.875C1652.26 421.875 1652.8 421.338 1652.8 420.675C1652.8 420.012 1652.26 419.475 1651.6 419.475C1650.94 419.475 1650.4 420.012 1650.4 420.675C1650.4 421.338 1650.94 421.875 1651.6 421.875Z" fill="white"/>
<path d="M1549 311.575C1549.66 311.575 1550.2 311.038 1550.2 310.375C1550.2 309.712 1549.66 309.175 1549 309.175C1548.34 309.175 1547.8 309.712 1547.8 310.375C1547.8 311.038 1548.34 311.575 1549 311.575Z" fill="white"/>
<path d="M1477.2 319.375C1477.86 319.375 1478.4 318.838 1478.4 318.175C1478.4 317.512 1477.86 316.975 1477.2 316.975C1476.54 316.975 1476 317.512 1476 318.175C1476 318.838 1476.54 319.375 1477.2 319.375Z" fill="white"/>
<path d="M134.6 111.475C135.208 111.475 135.7 110.982 135.7 110.375C135.7 109.767 135.208 109.275 134.6 109.275C133.992 109.275 133.5 109.767 133.5 110.375C133.5 110.982 133.992 111.475 134.6 111.475Z" fill="white"/>
<path d="M202.5 74.075C203.328 74.075 204 73.4034 204 72.575C204 71.7465 203.328 71.075 202.5 71.075C201.672 71.075 201 71.7465 201 72.575C201 73.4034 201.672 74.075 202.5 74.075Z" fill="white"/>
<path d="M203.2 45.575C203.807 45.575 204.3 45.0825 204.3 44.475C204.3 43.8675 203.807 43.375 203.2 43.375C202.592 43.375 202.1 43.8675 202.1 44.475C202.1 45.0825 202.592 45.575 203.2 45.575Z" fill="white"/>
<path d="M277 61.275C277.608 61.275 278.1 60.7825 278.1 60.1749C278.1 59.5674 277.608 59.075 277 59.075C276.393 59.075 275.9 59.5674 275.9 60.1749C275.9 60.7825 276.393 61.275 277 61.275Z" fill="white"/>
<path d="M724.6 175.775C725.207 175.775 725.7 175.282 725.7 174.675C725.7 174.067 725.207 173.575 724.6 173.575C723.992 173.575 723.5 174.067 723.5 174.675C723.5 175.282 723.992 175.775 724.6 175.775Z" fill="white"/>
<path d="M792.5 138.275C793.328 138.275 794 137.603 794 136.775C794 135.946 793.328 135.275 792.5 135.275C791.672 135.275 791 135.946 791 136.775C791 137.603 791.672 138.275 792.5 138.275Z" fill="white"/>
<path d="M793.2 109.775C793.808 109.775 794.3 109.282 794.3 108.675C794.3 108.067 793.808 107.575 793.2 107.575C792.592 107.575 792.1 108.067 792.1 108.675C792.1 109.282 792.592 109.775 793.2 109.775Z" fill="white"/>
<path d="M867 125.475C867.608 125.475 868.1 124.982 868.1 124.375C868.1 123.767 867.608 123.275 867 123.275C866.392 123.275 865.9 123.767 865.9 124.375C865.9 124.982 866.392 125.475 867 125.475Z" fill="white"/>
<path d="M1613.5 8.575C1614.11 8.575 1614.6 8.08251 1614.6 7.475C1614.6 6.86749 1614.11 6.375 1613.5 6.375C1612.89 6.375 1612.4 6.86749 1612.4 7.475C1612.4 8.08251 1612.89 8.575 1613.5 8.575Z" fill="white"/>
<path d="M1481.5 75.1751C1482.11 75.1751 1482.6 74.6826 1482.6 74.0751C1482.6 73.4676 1482.11 72.9751 1481.5 72.9751C1480.89 72.9751 1480.4 73.4676 1480.4 74.0751C1480.4 74.6826 1480.89 75.1751 1481.5 75.1751Z" fill="white"/>
<path d="M1573 153.475C1573.61 153.475 1574.1 152.982 1574.1 152.375C1574.1 151.767 1573.61 151.275 1573 151.275C1572.39 151.275 1571.9 151.767 1571.9 152.375C1571.9 152.982 1572.39 153.475 1573 153.475Z" fill="white"/>
<path d="M1591.3 166.575C1591.91 166.575 1592.4 166.083 1592.4 165.475C1592.4 164.867 1591.91 164.375 1591.3 164.375C1590.69 164.375 1590.2 164.867 1590.2 165.475C1590.2 166.083 1590.69 166.575 1591.3 166.575Z" fill="white"/>
<path d="M1643.5 238.375C1644.11 238.375 1644.6 237.883 1644.6 237.275C1644.6 236.668 1644.11 236.175 1643.5 236.175C1642.89 236.175 1642.4 236.668 1642.4 237.275C1642.4 237.883 1642.89 238.375 1643.5 238.375Z" fill="white"/>
<path d="M1584.1 336.375C1584.71 336.375 1585.2 335.883 1585.2 335.275C1585.2 334.668 1584.71 334.175 1584.1 334.175C1583.49 334.175 1583 334.668 1583 335.275C1583 335.883 1583.49 336.375 1584.1 336.375Z" fill="white"/>
<path d="M202.6 284.475C203.484 284.475 204.2 283.759 204.2 282.875C204.2 281.991 203.484 281.275 202.6 281.275C201.716 281.275 201 281.991 201 282.875C201 283.759 201.716 284.475 202.6 284.475Z" fill="white"/>
<path d="M1653.3 395.575C1654.18 395.575 1654.9 394.859 1654.9 393.975C1654.9 393.091 1654.18 392.375 1653.3 392.375C1652.42 392.375 1651.7 393.091 1651.7 393.975C1651.7 394.859 1652.42 395.575 1653.3 395.575Z" fill="white"/>
<path d="M1634.4 402.275C1635.01 402.275 1635.5 401.782 1635.5 401.175C1635.5 400.567 1635.01 400.075 1634.4 400.075C1633.79 400.075 1633.3 400.567 1633.3 401.175C1633.3 401.782 1633.79 402.275 1634.4 402.275Z" fill="white"/>
<path d="M1541.6 408.875C1542.21 408.875 1542.7 408.383 1542.7 407.775C1542.7 407.168 1542.21 406.675 1541.6 406.675C1540.99 406.675 1540.5 407.168 1540.5 407.775C1540.5 408.383 1540.99 408.875 1541.6 408.875Z" fill="white"/>
<path d="M1469.9 91.075C1470.45 91.075 1470.9 90.6272 1470.9 90.075C1470.9 89.5227 1470.45 89.075 1469.9 89.075C1469.35 89.075 1468.9 89.5227 1468.9 90.075C1468.9 90.6272 1469.35 91.075 1469.9 91.075Z" fill="white"/>
<path d="M1491.4 18.575C1491.95 18.575 1492.4 18.1272 1492.4 17.575C1492.4 17.0227 1491.95 16.575 1491.4 16.575C1490.85 16.575 1490.4 17.0227 1490.4 17.575C1490.4 18.1272 1490.85 18.575 1491.4 18.575Z" fill="white"/>
<path d="M355.1 27.2749C355.652 27.2749 356.1 26.8272 356.1 26.2749C356.1 25.7226 355.652 25.2749 355.1 25.2749C354.548 25.2749 354.1 25.7226 354.1 26.2749C354.1 26.8272 354.548 27.2749 355.1 27.2749Z" fill="white"/>
<path d="M70.3 144.075C70.9627 144.075 71.5 143.538 71.5 142.875C71.5 142.212 70.9627 141.675 70.3 141.675C69.6372 141.675 69.1 142.212 69.1 142.875C69.1 143.538 69.6372 144.075 70.3 144.075Z" fill="white"/>
</g>
</svg>
